<svg width="64" height="67" viewBox="0 0 64 67" fill="none" xmlns="http://www.w3.org/2000/svg">
<path d="M62.9846 38.8958L58.8875 33.3765C58.8193 33.2836 58.7826 33.1716 58.7826 33.0566C58.7826 32.9416 58.8193 32.8296 58.8875 32.7367L62.9411 27.1848C63.3964 26.5589 63.6959 25.8343 63.8148 25.0706C63.9337 24.3069 63.8687 23.5261 63.625 22.7924C63.3814 22.0586 62.9661 21.393 62.4134 20.8502C61.8606 20.3074 61.1862 19.903 60.4457 19.6703L53.9077 17.5992C53.7966 17.5644 53.6996 17.4951 53.6309 17.4014C53.5623 17.3077 53.5256 17.1946 53.5263 17.0787V10.2148C53.5263 9.44187 53.3418 8.68005 52.988 7.99202C52.6342 7.30399 52.1213 6.70943 51.4913 6.25731C50.8614 5.80518 50.1326 5.50842 49.3649 5.39146C48.5972 5.2745 47.8125 5.34069 47.0755 5.58458L40.5375 7.75328C40.4283 7.79085 40.3098 7.79213 40.1997 7.75694C40.0897 7.72174 39.9941 7.65197 39.9273 7.55809L35.8302 2.00622C35.3779 1.38109 34.7819 0.872771 34.0918 0.523774C33.4018 0.174777 32.6378 -0.00476095 31.8638 0.000171258V0.000171258C31.0829 -0.00639004 30.3121 0.175673 29.6174 0.53074C28.9228 0.885807 28.3251 1.40328 27.8756 2.03875L23.8656 7.62315C23.7989 7.71703 23.7033 7.7868 23.5932 7.822C23.4832 7.85719 23.3647 7.85591 23.2554 7.81834L16.7174 5.64964C15.9723 5.40477 15.1789 5.34145 14.4041 5.465C13.6292 5.58854 12.8955 5.89535 12.2645 6.35963C11.6336 6.82392 11.1238 7.43212 10.778 8.13314C10.4322 8.83416 10.2606 9.60752 10.2775 10.3882L10.332 17.2522C10.3327 17.3681 10.296 17.4812 10.2274 17.5749C10.1588 17.6686 10.0618 17.7379 9.95061 17.7727L3.41262 19.8872C2.66678 20.1254 1.98895 20.5375 1.43566 21.0893C0.88237 21.6411 0.469637 22.3165 0.231869 23.0592C-0.00589894 23.8019 -0.0618129 24.5904 0.0687883 25.359C0.19939 26.1276 0.512722 26.854 0.982666 27.4776L5.05802 32.9427C5.1262 33.0356 5.16295 33.1476 5.16295 33.2626C5.16295 33.3776 5.1262 33.4896 5.05802 33.5825L1.00446 39.1344C0.549075 39.7603 0.249599 40.485 0.130683 41.2486C0.0117672 42.0123 0.0768131 42.7931 0.320466 43.5268C0.564118 44.2606 0.97941 44.9263 1.53215 45.469C2.08489 46.0118 2.75928 46.4162 3.49979 46.6489L10.0378 48.72C10.1489 48.7548 10.2459 48.8241 10.3146 48.9178C10.3832 49.0115 10.4199 49.1246 10.4192 49.2405V56.1045C10.4192 56.8773 10.6037 57.6392 10.9575 58.3272C11.3113 59.0152 11.8243 59.6098 12.4542 60.0619C13.0841 60.514 13.8129 60.8108 14.5806 60.9278C15.3483 61.0447 16.133 60.9785 16.87 60.7346L23.408 58.5659C23.5172 58.5284 23.6358 58.5271 23.7458 58.5623C23.8558 58.5975 23.9514 58.6672 24.0182 58.7611L28.0718 64.313C28.524 64.9381 29.12 65.4464 29.8101 65.7954C30.5001 66.1444 31.2641 66.324 32.0381 66.319C32.8154 66.3221 33.5818 66.1383 34.2724 65.7834C34.9629 65.4285 35.5571 64.9129 36.0045 64.2805L40.0145 58.6961C40.0813 58.6022 40.1769 58.5324 40.2869 58.4972C40.3969 58.462 40.5155 58.4633 40.6247 58.5009L47.1627 60.6696C47.9116 60.9275 48.7122 61.0009 49.4959 60.8835C50.2796 60.7661 51.023 60.4615 51.6625 59.9957C52.302 59.5299 52.8185 58.9168 53.1677 58.2088C53.517 57.5009 53.6887 56.7193 53.668 55.931V49.067C53.6673 48.9511 53.704 48.838 53.7726 48.7443C53.8412 48.6506 53.9382 48.5813 54.0494 48.5465L60.5874 46.3778C61.3332 46.1396 62.011 45.7275 62.5643 45.1757C63.1176 44.6239 63.5304 43.9485 63.7681 43.2058C64.0059 42.4631 64.0618 41.6746 63.9312 40.906C63.8006 40.1374 63.4873 39.411 63.0173 38.7874L62.9846 38.8958ZM60.5874 42.2898C60.5111 42.5467 60.3714 42.7805 60.1811 42.9699C59.9908 43.1593 59.7558 43.2983 59.4977 43.3742L52.9597 45.5429C52.1878 45.7885 51.5152 46.2737 51.0407 46.9275C50.5661 47.5812 50.3145 48.369 50.3227 49.1755V56.0394C50.3273 56.302 50.2679 56.5617 50.1496 56.7965C50.0313 57.0312 49.8577 57.234 49.6435 57.3874C49.4294 57.5409 49.181 57.6404 48.9198 57.6776C48.6586 57.7148 48.3922 57.6884 48.1434 57.6009L41.6054 55.4322C40.8506 55.2009 40.0422 55.2093 39.2923 55.4561C38.5425 55.7028 37.8885 56.1758 37.4211 56.8093L33.4111 62.4371C33.2632 62.6485 33.066 62.8211 32.8363 62.9401C32.6067 63.059 32.3515 63.1208 32.0926 63.1202V63.1202C31.8316 63.1245 31.5735 63.0644 31.3415 62.9451C31.1095 62.8259 30.9108 62.6514 30.7632 62.4371L26.7097 56.8852C26.2328 56.233 25.5595 55.749 24.7876 55.5034C24.0156 55.2577 23.185 55.2631 22.4164 55.5189L15.8784 57.6876C15.6337 57.7716 15.3723 57.7957 15.1163 57.758C14.8602 57.7202 14.6171 57.6217 14.4073 57.4707C14.198 57.3187 14.0277 57.1197 13.9103 56.8898C13.7929 56.6599 13.7317 56.4057 13.7318 56.1478V49.2405C13.7328 48.434 13.4756 47.6482 12.9975 46.997C12.5194 46.3458 11.8453 45.863 11.073 45.6188L4.53498 43.5477C4.27591 43.4736 4.04 43.3352 3.8494 43.1456C3.6588 42.9559 3.51975 42.7211 3.44531 42.4633C3.36758 42.2273 3.34484 41.9767 3.37882 41.7306C3.4128 41.4845 3.50261 41.2493 3.64145 41.0428L7.69501 35.491C8.17554 34.8423 8.43478 34.0576 8.43478 33.2518C8.43478 32.4459 8.17554 31.6612 7.69501 31.0126L3.64145 25.4932C3.48939 25.2853 3.38867 25.0447 3.34744 24.7909C3.30622 24.537 3.32566 24.2771 3.40418 24.0321C3.48271 23.7871 3.61811 23.564 3.79942 23.3808C3.98073 23.1976 4.20285 23.0594 4.4478 22.9776L10.9858 20.8089C11.7577 20.5632 12.4303 20.078 12.9048 19.4243C13.3794 18.7705 13.631 17.9827 13.6228 17.1763L13.5465 10.3882C13.542 10.1257 13.6014 9.86592 13.7196 9.63117C13.8379 9.39642 14.0116 9.19366 14.2257 9.04022C14.4399 8.88678 14.6882 8.78722 14.9494 8.75005C15.2107 8.71288 15.4771 8.73921 15.7258 8.82678L22.2638 10.9955C23.0403 11.2332 23.8729 11.2172 24.6396 10.9499C25.4063 10.6826 26.0668 10.1779 26.5244 9.50992L30.5344 3.93636C30.6823 3.72494 30.8796 3.55235 31.1092 3.43338C31.3388 3.3144 31.594 3.25258 31.8529 3.25322C32.1091 3.24282 32.3641 3.29465 32.5957 3.40422C32.8273 3.51379 33.0286 3.67782 33.1823 3.88215L37.2358 9.43402C37.7127 10.0862 38.386 10.5702 39.1579 10.8159C39.9299 11.0615 40.7605 11.0561 41.5291 10.8003L48.0671 8.6316C48.3124 8.54729 48.5747 8.52397 48.8311 8.56366C49.0875 8.60335 49.3302 8.70485 49.5382 8.85931C49.7486 9.00773 49.9199 9.20452 50.0376 9.43295C50.1552 9.66138 50.2156 9.91471 50.2138 10.1714V17.0353C50.2127 17.8418 50.4699 18.6276 50.948 19.2788C51.4261 19.9301 52.1002 20.4128 52.8725 20.657L59.4105 22.7282C59.6696 22.8022 59.9055 22.9406 60.0961 23.1303C60.2867 23.3199 60.4258 23.5547 60.5002 23.8125C60.585 24.0547 60.6115 24.3134 60.5774 24.5677C60.5433 24.822 60.4497 25.0647 60.3041 25.2764L56.2505 30.8283C55.77 31.4769 55.5107 32.2616 55.5107 33.0674C55.5107 33.8733 55.77 34.658 56.2505 35.3066L60.3041 40.826C60.4659 41.0294 60.5762 41.2686 60.6255 41.5234C60.6748 41.7782 60.6618 42.0411 60.5874 42.2898ZM42.5861 25.5692H39.4588C40.0799 20.7004 38.0858 18.2173 36.7346 17.1221C35.9811 16.4526 35.0597 15.9983 34.0679 15.8075C33.0762 15.6166 32.051 15.6961 31.101 16.0377C30.6246 16.2466 30.219 16.588 29.9329 17.0208C29.6468 17.4536 29.4924 17.9595 29.4883 18.4775C29.4883 19.0956 29.4883 19.7028 29.5428 20.2884C29.7479 21.8805 29.5648 23.4984 29.0089 25.0053C28.6384 25.8077 26.8295 26.7403 25.2277 27.3583C24.923 27.1028 24.5365 26.9643 24.1381 26.968H17.0008C16.5673 26.968 16.1515 27.1393 15.845 27.4444C15.5385 27.7494 15.3663 28.1631 15.3663 28.5945V43.0164C15.3663 43.4477 15.5385 43.8614 15.845 44.1665C16.1515 44.4715 16.5673 44.6429 17.0008 44.6429H24.1599C24.5595 44.6425 24.9459 44.5003 25.2495 44.2417L28.1916 45.326C29.9524 45.9779 31.8158 46.312 33.6944 46.3128H42.3355C43.5261 46.3188 44.6784 45.8944 45.5783 45.1186C46.4782 44.3428 47.0644 43.2682 47.2281 42.0947L48.5793 32.3355C48.695 31.4877 48.626 30.6251 48.3771 29.8062C48.1282 28.9872 47.7051 28.2312 47.1366 27.5893C46.5681 26.9475 45.8675 26.4349 45.0823 26.0863C44.2972 25.7378 43.4458 25.5614 42.5861 25.5692ZM22.5254 41.3898H18.6352V30.221H22.5254V41.3898ZM45.2776 31.8909L43.9373 41.6501C43.8822 42.0401 43.6878 42.3972 43.3896 42.6561C43.0914 42.9151 42.7094 43.0583 42.3137 43.0597H33.6726C32.1844 43.0621 30.7079 42.7976 29.314 42.279L25.7944 40.9886V30.6222C27.6795 29.9825 30.9376 28.5945 31.9728 26.3716C32.7717 24.3995 33.0602 22.2593 32.8118 20.1474C32.8118 19.7462 32.8118 19.3341 32.8118 18.9112C33.4939 18.9163 34.1528 19.1579 34.6751 19.5944C35.6231 20.3426 37.0506 22.2727 35.95 26.7836C35.8876 27.0206 35.8797 27.2686 35.9271 27.509C35.9744 27.7495 36.0757 27.9762 36.2235 28.1722C36.3712 28.3682 36.5615 28.5285 36.7802 28.641C36.9989 28.7536 37.2403 28.8155 37.4865 28.8222H42.5861C42.9743 28.8191 43.3585 28.8999 43.7122 29.059C44.0659 29.2181 44.3806 29.4518 44.6347 29.7439C44.89 30.0351 45.0795 30.3775 45.1905 30.7479C45.3014 31.1183 45.3311 31.5081 45.2776 31.8909V31.8909Z" fill="#3A3A3A"/>
</svg>
