<svg width="53" height="64" viewBox="0 0 53 64" fill="none" xmlns="http://www.w3.org/2000/svg">
<path d="M26.4038 4.02633C32.8109 10.2027 41.4433 14.9652 49.8072 18.0057L49.8071 36.9381C49.8071 49.3009 38.5478 60.8613 26.4038 60.9985C14.2603 60.8613 3.00065 49.3009 3.00058 36.9381V18.0057C11.3644 14.9652 19.9968 10.2027 26.4038 4.02633ZM26.4038 1.8862e-06C26.1856 -0.00033473 25.9696 0.0443873 25.7694 0.131369C25.5692 0.21835 25.3892 0.345718 25.2405 0.505499C18.5695 7.48816 10.2871 12.7273 1.11967 15.7633C0.796179 15.8662 0.513582 16.0688 0.312426 16.3423C0.111271 16.6157 0.00189691 16.9458 0 17.2852V36.9381C5.60082e-05 51.4401 11.8572 63.835 26.3582 63.9988C26.3734 63.999 26.3886 64 26.4038 64C26.419 64 26.4342 63.999 26.4495 63.9988C40.9506 63.835 52.8077 51.4401 52.8077 36.9381L52.8077 17.2852C52.8059 16.9458 52.6965 16.6157 52.4953 16.3422C52.2942 16.0688 52.0115 15.8662 51.688 15.7633C42.5206 12.7273 34.2382 7.48818 27.5672 0.505531C27.4185 0.34575 27.2385 0.218382 27.0383 0.131401C26.8381 0.0444193 26.6221 -0.00033473 26.4038 1.8862e-06Z" fill="#3A3A3A"/>
<path d="M27.889 32.8619V25.68C28.8062 25.8221 29.5532 26.2247 30.848 27.5405C31.4171 28.1189 32.3389 28.1795 32.9469 27.6422V27.6422C33.5279 27.1287 33.6195 26.2453 33.0832 25.6854C31.6918 24.2326 29.9064 23.0985 27.8904 22.9203V20.8063C27.8904 19.9662 27.2094 19.2852 26.3693 19.2852V19.2852C25.5293 19.2852 24.8483 19.9662 24.8483 20.8063V22.9203C21.9772 23.4028 19.369 25.7228 19.369 28.7885C19.369 32.0734 21.85 34.1743 24.8483 34.9628V42.889C23.4897 42.7031 22.5701 41.8539 21.7929 40.8442C21.2712 40.1663 20.3174 39.9823 19.6273 40.4877V40.4877C18.9916 40.9534 18.8142 41.8383 19.3079 42.4525C20.6962 44.1797 22.6227 45.5407 24.8483 45.6488V47.7642C24.8483 48.6042 25.5293 49.2852 26.3693 49.2852V49.2852C27.2094 49.2852 27.8904 48.6042 27.8904 47.7642V45.6488C31.2828 45.606 34.5 43.0655 34.5 39.4304C34.4986 35.5321 31.4114 33.3871 27.889 32.8619ZM24.8469 32.0293C23.4538 31.5469 22.4124 30.3641 22.4124 28.9195C22.4124 27.5175 23.4114 26.0288 24.8469 25.6786V32.0293ZM27.889 42.889V35.8381C29.7172 36.1014 31.4538 37.4592 31.4538 39.3863C31.4538 41.4003 29.8021 42.8022 27.889 42.889Z" fill="#3A3A3A"/>
</svg>
