<svg width="64" height="53" viewBox="0 0 64 53" fill="none" xmlns="http://www.w3.org/2000/svg">
<path d="M17.3182 0.00199817C16.9565 0.036082 16.6207 0.204207 16.3768 0.473367C16.1328 0.742527 15.9984 1.09321 16 1.45645V29.0918H11.6364V28.3645C11.6363 27.9788 11.4831 27.6089 11.2103 27.3361C10.9375 27.0634 10.5676 26.9101 10.1818 26.9101H1.45456C1.40913 26.9079 1.36362 26.9079 1.3182 26.9101C0.956541 26.9441 0.620726 27.1123 0.37679 27.3814C0.132854 27.6506 -0.00154842 28.0013 1.34614e-05 28.3645V48.7274C3.7472e-05 49.1131 0.15329 49.4831 0.426063 49.7559C0.698836 50.0286 1.06879 50.1819 1.45456 50.1819H10.1818C10.5676 50.1819 10.9376 50.0286 11.2103 49.7559C11.4831 49.4831 11.6364 49.1131 11.6364 48.7274V46.6139L22.6136 52.2045C22.8177 52.3088 23.0436 52.3632 23.2727 52.3636H43.6364C43.8926 52.3607 44.1435 52.2901 44.3636 52.1591L61.9773 41.8413C63.5044 40.9476 64 39.2818 64 37.8187C64 35.0245 61.7035 32.728 58.9091 32.728C58.6661 32.728 58.4266 32.7425 58.1818 32.7731V1.4561C58.1818 1.07036 58.0285 0.700407 57.7558 0.427646C57.483 0.154885 57.113 0.0016372 56.7273 0.00159867H17.4546C17.4091 -0.00053289 17.3636 -0.00053289 17.3182 0.00159867V0.00199817ZM18.9091 2.91096H55.2727V33.9553L50.4318 36.4097C49.6159 34.6782 47.8466 33.4553 45.8182 33.4553H32C31.1271 33.4553 30.0444 32.6553 28.4546 31.5235C26.8647 30.3917 24.7404 29.0918 21.8182 29.0918H18.9091V2.91096ZM29.6818 5.81991C29.3202 5.854 28.9844 6.02216 28.7404 6.29133C28.4965 6.56049 28.3621 6.91117 28.3636 7.27441V13.0924C28.3637 13.4781 28.5169 13.8481 28.7897 14.1208C29.0625 14.3936 29.4324 14.5468 29.8182 14.5469H44.3636C44.7494 14.5468 45.1193 14.3936 45.3921 14.1208C45.6649 13.8481 45.8181 13.4781 45.8182 13.0924V7.27441C45.8182 6.88867 45.6649 6.51877 45.3921 6.24601C45.1193 5.97324 44.7494 5.81995 44.3636 5.81991H29.8182C29.7728 5.81778 29.7273 5.81778 29.6818 5.81991ZM31.2727 8.72891H42.9091V11.6379H31.2727V8.72891ZM2.9091 29.819H8.72728V47.273H2.9091V29.819ZM11.6364 32.0008H21.8182C23.8938 32.0008 25.298 32.86 26.7727 33.9098C28.2475 34.9597 29.7655 36.3643 32 36.3643H45.8182C47.0521 36.3643 48 37.3121 48 38.546C48 39.7798 47.0521 40.7276 45.8182 40.7277H32.7273C32.5344 40.7248 32.3429 40.7603 32.1639 40.8321C31.9849 40.9039 31.822 41.0106 31.6846 41.1459C31.5472 41.2813 31.4381 41.4426 31.3636 41.6205C31.2892 41.7984 31.2508 41.9893 31.2508 42.1822C31.2508 42.375 31.2892 42.566 31.3636 42.7439C31.4381 42.9218 31.5472 43.0831 31.6846 43.2185C31.822 43.3538 31.9849 43.4604 32.1639 43.5322C32.3429 43.604 32.5344 43.6395 32.7273 43.6366H45.8182C48.2961 43.6366 50.3767 41.8346 50.8182 39.4778L58.0455 35.7961C58.2562 35.6889 58.5476 35.637 58.9091 35.637C60.1313 35.637 61.0909 36.5966 61.0909 37.8187C61.0909 38.5863 60.781 39.1902 60.5227 39.3414L43.2273 49.4546H23.6136L11.6364 43.3413V32.0008Z" fill="#3A3A3A"/>
</svg>
