<svg width="64" height="46" viewBox="0 0 64 46" fill="none" xmlns="http://www.w3.org/2000/svg">
<path d="M48.7273 31.1564C48.994 31.4278 49.3576 31.5841 49.7374 31.5841C50.1172 31.5841 50.4808 31.4278 50.7475 31.1564L52.8889 28.9772C59.3778 22.3737 59.9758 15.3672 54.6344 8.69783C53.5677 7.36561 52.7354 5.83603 52.1616 4.15019L51.0869 0.97589C50.9253 0.507146 50.5374 0.145309 50.0606 0.0384024C49.5839 -0.0767277 49.0828 0.0712965 48.7354 0.424911L46.594 2.60416C39.4505 9.87381 39.4505 21.7075 46.594 28.9772L48.7273 31.1564ZM48.6061 4.66005L49.1394 4.1173L49.4707 5.10413C50.1495 7.11068 51.1435 8.93632 52.4283 10.5399C56.5091 15.6221 56.3717 20.5974 52 25.7124C52.3475 22.4394 52.2505 17.5711 50.2303 11.8146C49.9637 11.058 49.1475 10.6715 48.4121 10.9346C47.6687 11.206 47.2889 12.0366 47.5475 12.785C49.8263 19.2816 49.3899 24.5447 48.8889 27.2173L48.6061 26.9295C42.5697 20.7947 42.5697 10.8031 48.6061 4.66005ZM63.798 35.1284C63.095 32.9985 60.8243 31.839 58.7637 32.5462L50.9899 34.9804C50.9657 34.9886 50.9333 34.9969 50.9091 35.0133C49.5758 35.5232 48.1859 35.7945 46.7636 35.8192C45.3576 35.8603 43.9192 35.4656 42.5859 34.7337L42.5131 34.6926C42.7152 34.5692 42.901 34.4294 43.0626 34.2732C43.0707 34.265 43.0788 34.2567 43.0869 34.2485C43.8142 33.4919 44.2182 32.4969 44.2182 31.436C44.2182 30.367 43.8061 29.3555 43.0626 28.5989L36.7273 22.1681C34.303 19.6845 30.9576 18.2865 27.5313 18.2865H11.5879V16.9132C11.5879 16.1155 10.9899 15.4905 10.2061 15.4905H1.42222C0.638384 15.4905 0 16.132 0 16.9296C0 17.7273 0.638384 18.3688 1.42222 18.3688H8.7596V37.6942H1.42222C0.638384 37.6942 0 38.3767 0 39.1744C0 39.9721 0.638384 40.6547 1.42222 40.6547H10.198C10.9818 40.6547 11.5798 39.9639 11.5798 39.1662V35.9097C14.0849 36.181 15.6444 36.51 16.2909 36.8307C17.8909 38.0478 28.5657 46 33.0505 46H43.903C45.7212 46 47.5071 45.6464 49.2041 44.9885L61.5111 40.2106C61.5273 40.2024 61.5435 40.1942 61.5596 40.1859C63.4667 39.3636 64.4525 37.1432 63.798 35.1284ZM60.4606 37.4968L48.1859 42.2418C46.8121 42.7764 45.3738 43.0395 43.903 43.0395H33.0505C30.3111 43.0395 22.3192 37.7517 17.9313 34.413C17.8828 34.3719 17.8101 34.3472 17.7535 34.3143C16.7434 33.7386 14.9818 33.3439 11.5879 32.9903V21.1648H27.5313C30.2061 21.1648 32.8162 22.2667 34.7071 24.1993L41.0424 30.6466C41.2525 30.8604 41.3657 31.1318 41.3657 31.4278C41.3657 31.7156 41.2606 31.987 41.0586 32.2008C40.5737 32.612 38.5131 32.6285 38.0445 32.2584L33.0424 27.168C32.4849 26.6006 31.5879 26.6006 31.0303 27.168C30.4727 27.7354 30.4727 28.6482 31.0303 29.2157L36.0566 34.3307C36.3232 34.5939 36.6707 34.8077 37.0586 34.9722C37.0909 34.9969 37.1313 35.0133 37.1636 35.038L41.2202 37.2748C42.9818 38.2452 44.9131 38.7304 46.8041 38.7139C48.5414 38.6892 50.2465 38.3603 51.8707 37.7435L59.6283 35.3176C60.2344 35.112 60.8889 35.4491 61.0909 36.0577C61.2768 36.6251 61.002 37.2583 60.4606 37.4968Z" fill="#3A3A3A"/>
</svg>
